#!OML:ASF I:\salsa\salsa 7_09\Patient 1\Session 1\dancerfemale.ASF
:FULLY-SPECIFIED
:DEGREES
1049
root -10.1673 15.7026 3.736 -1056.36 -248.932 377.733
lowerback -3.5263 0.722742 0.0681783
upperback -11.2732 2.02362 3.49363
thorax -10.1324 1.5193 3.53692
lowerneck 5.29875 -7.76703 -8.93886
upperneck 8.07916 -10.9234 7.14586
head 2.43478 -5.49235 3.44734
rclavicle -2.1916e-014 -6.06293e-015
rhumerus 9.56797 8.12936 -116.184
rradius 60.1719
rwrist -22.1745
rhand -9.47194 412.09
rfingers 7.12502
rthumb 16.4921 22.7705
lclavicle -2.1916e-014 -6.06293e-015
lhumerus 19.0129 -29.8369 80.5281
lradius 63.8466
lwrist -32.5264
lhand -16.4315 21.6515
lfingers 7.12502
lthumb 9.78389 -308.596
rfemur 8.96046 -4.52482 22.9995
rtibia 29.6688
rfoot 7.92278 -3.18283
rtoes -11.9162
lfemur -42.4037 1.2759 -16.1316
ltibia 39.1312
lfoot -13.9053 11.7884
ltoes -14.4882
1050
root -9.88932 15.7272 3.493 -1060.36 -248.042 374.271
lowerback -2.64055 0.61458 -0.0282916
upperback -10.7829 1.72049 2.75364
thorax -10.0411 1.2866 2.80104
lowerneck 4.73695 -8.3249 -9.59045
upperneck 7.14718 -11.7301 8.47182
head 2.42531 -5.8919 3.90331
rclavicle 1.27098e-014 -1.98288e-014
rhumerus 10.4379 10.8365 -114.79
rradius 61.0006
rwrist -24.9039
rhand -10.7878 413.551
rfingers 7.12502
rthumb 15.2249 24.1309
lclavicle 1.27098e-014 -1.98288e-014
lhumerus 21.6366 -30.5237 77.457
lradius 64.4964
lwrist -32.0673
lhand -16.7999 21.2656
lfingers 7.12502
lthumb 9.4284 -308.965
rfemur 4.87442 -5.30387 21.8148
rtibia 38.9119
rfoot 10.1271 -4.8446
rtoes -13.8266
lfemur -41.1533 2.04698 -18.5661
ltibia 39.8271
lfoot -11.7774 9.43232
ltoes -20.4994
1051
root -9.64965 15.7003 3.27517 -1064.78 -247.069 370.704
lowerback -1.04593 0.775985 -0.127553
upperback -10.1096 1.75214 1.90493
thorax -10.1918 1.20555 1.92524
lowerneck 4.4383 -9.01048 -10.5241
upperneck 5.73666 -12.7033 9.95607
head 2.29478 -6.38698 4.45733
rclavicle -2.28478e-014 -7.50412e-015
rhumerus 11.8758 10.5075 -114.687
rradius 60.9438
rwrist -24.7351
rhand -10.7148 415.656
rfingers 7.12502
rthumb 15.2953 26.2411
lclavicle -2.28478e-014 -7.50412e-015
lhumerus 25.0647 -31.5123 74.4562
lradius 65.0031
lwrist -31.5722
lhand -17.1808 20.8314
lfingers 7.12502
lthumb 9.06087 -309.383
rfemur 1.06136 -6.30419 20.445
rtibia 47.9965
rfoot 10.1336 -7.49064
rtoes -12.1997
lfemur -39.5102 2.44549 -20.813
ltibia 40.3663
lfoot -11.3904 7.58127
ltoes -21.3558
1052
root -9.43915 15.6293 3.09879 -1070.49 -246.717 366.162
lowerback 1.45541 1.16181 -1.14051
upperback -9.31139 1.9964 1.00394
thorax -10.7974 1.29968 1.46382
lowerneck 3.9583 -9.72421 -11.4176
upperneck 4.52317 -13.6685 11.1824
head 2.25808 -6.87144 4.90598
rclavicle -2.49972e-014 -7.7526e-015
rhumerus 13.1278 11.7009 -113.027
rradius 63.5808
rwrist -25.7538
rhand -11.567 415.843
rfingers 7.12502
rthumb 14.4742 26.3674
lclavicle -2.49972e-014 -7.7526e-015
lhumerus 28.8761 -32.2064 71.5251
lradius 65.0874
lwrist -31.6268
lhand -18.4671 20.2908
lfingers 7.12502
lthumb 7.81954 -309.874
rfemur -3.16232 -7.03037 18.4367
rtibia 56.7831
rfoot 9.30352 -8.69597
rtoes -8.44543
lfemur -37.2113 3.1915 -23.393
ltibia 40.5908
lfoot -11.8031 6.23596
ltoes -20.0361
1053
root -9.24613 15.6441 2.92574 -1077.25 -246.184 360.822
lowerback 4.66476 1.45981 -2.37402
upperback -8.40994 2.01232 -0.0429452
thorax -11.7342 1.29592 0.960084
lowerneck 3.21114 -10.3136 -12.3292
upperneck 3.61938 -14.4396 12.4859
head 2.36248 -7.24139 5.35896
rclavicle 4.76586e-014 -7.15625e-015
rhumerus 14.6742 12.4394 -112.017
rradius 65.2197
rwrist -26.0303
rhand -11.8806 416.975
rfingers 7.12502
rthumb 14.1721 27.4779
lclavicle 4.76586e-014 -7.15625e-015
lhumerus 32.9655 -32.3973 68.2125
lradius 64.9063
lwrist -31.7143
lhand -20.2993 20.0314
lfingers 7.12502
lthumb 6.05087 -310.075
rfemur -6.84734 -7.82601 15.8723
rtibia 64.2654
rfoot 7.88195 -9.94724
rtoes -7.32744
lfemur -33.8663 3.98078 -26.1789
ltibia 40.1179
lfoot -12.5641 4.89035
ltoes -19.225
1054
root -9.02482 15.7073 2.70555 -1083.46 -245.9 355.921
lowerback 6.98867 1.7736 -2.77423
upperback -7.39249 2.11855 -1.247
thorax -11.9683 1.26655 -0.180252
lowerneck 2.55693 -10.7265 -13.4042
upperneck 2.9086 -14.9815 13.9221
head 2.52113 -7.49211 5.88489
rclavicle 8.82604e-014 -1.59028e-015
rhumerus 16.4325 12.9883 -111.419
rradius 66.2906
rwrist -25.922
rhand -11.7786 418.331
rfingers 7.12502
rthumb 14.2704 28.8411
lclavicle 8.82604e-014 -1.59028e-015
lhumerus 37.1245 -32.0916 64.675
lradius 64.7519
lwrist -31.2297
lhand -21.0419 20.2755
lfingers 7.12502
lthumb 5.33385 -309.812
rfemur -9.96363 -8.36611 12.9534
rtibia 70.0776
rfoot 6.17415 -10.234
rtoes -10.4237
lfemur -29.8823 4.87007 -28.7205
ltibia 39.1547
lfoot -13.8272 3.94118
ltoes -19.5396
1055
root -8.81505 15.764 2.49423 -1086.58 -245.32 353.819
lowerback 8.88863 1.83671 -1.81026
upperback -6.67648 2.12734 -2.31286
thorax -12.2315 1.10585 -1.92831
lowerneck 2.55206 -10.9512 -14.2601
upperneck 2.06326 -15.2951 15.235
head 2.49082 -7.65005 6.40207
rclavicle -1.6201e-014 3.97569e-016
rhumerus 18.1411 13.0281 -111.294
rradius 67.1935
rwrist -25.0258
rhand -12.1792 419.279
rfingers 7.12502
rthumb 13.8844 29.7625
lclavicle -1.6201e-014 3.97569e-016
lhumerus 40.9461 -31.6401 61.4304
lradius 64.5172
lwrist -30.6652
lhand -22.0311 20.2173
lfingers 7.12502
lthumb 4.37874 -309.848
rfemur -13.4395 -8.96454 11.47
rtibia 74.4848
rfoot 5.33519 -8.43329
rtoes -9.35995
lfemur -26.4264 5.48097 -30.0575
ltibia 37.682
lfoot -14.2167 3.27828
ltoes -20.8228
1056
root -8.61363 15.8286 2.29503 -1088.37 -244.445 352.655
lowerback 10.4783 1.72164 -0.444236
upperback -6.22147 2.01507 -3.43435
thorax -12.6005 0.864474 -3.96287
lowerneck 2.95617 -11.0853 -14.6421
upperneck 1.22938 -15.4956 16.317
head 2.33252 -7.76658 6.8174
rclavicle 2.79292e-014 2.70347e-014
rhumerus 19.966 12.0039 -111.892
rradius 67.9512
rwrist -23.1657
rhand -12.1279 420.023
rfingers 7.12502
rthumb 13.9338 30.5103
lclavicle 2.79292e-014 2.70347e-014
lhumerus 44.595 -31.2613 58.569
lradius 63.9832
lwrist -30.4061
lhand -23.4492 19.1179
lfingers 7.12502
lthumb 3.00931 -310.924
rfemur -17.1927 -9.76216 10.5748
rtibia 77.6362
rfoot 4.45336 -6.51141
rtoes -10.4609
lfemur -23.3908 5.52372 -30.935
ltibia 36.0816
lfoot -14.331 2.71595
ltoes -21.1126
1057
root -8.40858 15.8889 2.10643 -1091.29 -243.131 349.987
lowerback 11.8189 1.38446 -0.0240957
upperback -5.82392 1.48985 -4.69812
thorax -12.9674 0.511614 -5.55356
lowerneck 2.92686 -11.1507 -14.9699
upperneck 1.11413 -15.6091 17.165
head 2.4211 -7.81607 7.11713
rclavicle -5.63555e-014 -2.62396e-014
rhumerus 21.7499 12.0234 -111.131
rradius 68.1619
rwrist -22.6738
rhand -11.6277 421.453
rfingers 7.12502
rthumb 14.4157 31.974
lclavicle -5.63555e-014 -2.62396e-014
lhumerus 47.9261 -30.5437 56.1392
lradius 63.1838
lwrist -30.3226
lhand -23.7262 18.304
lfingers 7.12502
lthumb 2.74181 -311.734
rfemur -20.9168 -10.7695 8.88549
rtibia 79.9285
rfoot 3.31409 -4.81358
rtoes -11.0023
lfemur -20.4652 5.25089 -32.4969
ltibia 34.5655
lfoot -14.9533 1.83735
ltoes -20.9332
1058
root -8.18825 15.9249 1.92796 -1093.69 -241.51 347.506
lowerback 12.5389 0.777315 -0.355523
upperback -5.4582 0.532306 -5.59796
thorax -13.0838 0.0520914 -6.18349
lowerneck 2.64682 -10.9268 -15.5144
upperneck 1.24144 -15.3277 17.8426
head 2.55937 -7.66063 7.41452
rclavicle -4.81059e-014 -1.74931e-014
rhumerus 23.6626 12.6416 -110.111
rradius 68.0533
rwrist -22.2177
rhand -11.0694 422.617
rfingers 7.12502
rthumb 14.9536 33.1767
lclavicle -4.81059e-014 -1.74931e-014
lhumerus 50.6144 -29.2034 54.3835
lradius 62.3044
lwrist -30.3
lhand -24.0484 18.225
lfingers 7.12502
lthumb 2.43063 -311.809
rfemur -24.4347 -11.6722 7.45604
rtibia 80.8641
rfoot 1.89981 -3.03162
rtoes -12.7645
lfemur -17.9657 5.32035 -34.1211
ltibia 33.0732
lfoot -15.4944 0.402847
ltoes -22.2737
1059
root -7.95454 15.9442 1.75937 -1094.47 -239.81 346.191
lowerback 12.6136 0.125328 -0.144082
upperback -5.32218 -0.366691 -6.5893
thorax -13.0972 -0.423541 -7.23264
lowerneck 2.74595 -10.5859 -15.6463
upperneck 1.28775 -14.9015 18.5738
head 2.55541 -7.44477 7.71145
rclavicle 1.33186e-014 1.11319e-014
rhumerus 25.8662 13.0007 -108.552
rradius 67.6965
rwrist -21.6611
rhand -11.2876 423.635
rfingers 7.12502
rthumb 14.7434 34.1795
lclavicle 1.33186e-014 1.11319e-014
lhumerus 53.298 -28.3941 52.4596
lradius 61.6128
lwrist -30.1102
lhand -25.0649 18.4155
lfingers 7.12502
lthumb 1.44887 -311.61
rfemur -28.0077 -12.4089 6.87252
rtibia 80.8084
rfoot 0.194647 -1.81188
rtoes -12.8559
lfemur -16.2263 5.82435 -35.2247
ltibia 31.6027
lfoot -15.2708 -1.84768
ltoes -24.5242
1060
root -7.70805 15.9618 1.59546 -1094.97 -237.883 344.766
lowerback 12.2149 -0.650351 -0.643691
upperback -5.3242 -1.51006 -7.29727
thorax -13.0237 -0.934155 -7.48302
lowerneck 2.49508 -10.3311 -16.0015
upperneck 1.73813 -14.5958 18.7961
head 2.71881 -7.27671 7.84313
rclavicle -9.06458e-014 -9.54166e-015
rhumerus 28.0134 13.7821 -106.455
rradius 67.1523
rwrist -20.9381
rhand -11.4346 424.797
rfingers 7.12502
rthumb 14.6018 35.3306
lclavicle -9.06458e-014 -9.54166e-015
lhumerus 55.2278 -27.27 51.2942
lradius 61.0253
lwrist -30.1105
lhand -25.7454 18.3344
lfingers 7.12502
lthumb 0.791607 -311.687
rfemur -31.3023 -12.7686 6.32618
rtibia 79.6467
rfoot -1.26817 -1.74036
rtoes -12.5058
lfemur -14.8599 6.68359 -36.4467
ltibia 30.2219
lfoot -15.3484 -4.53253
ltoes -24.6515
1061
root -7.44686 15.9581 1.43564 -1095.9 -235.736 342.925
lowerback 11.8213 -1.51693 -1.68802
upperback -5.30283 -2.8434 -7.93252
thorax -12.9259 -1.47896 -7.29567
lowerneck 2.36126 -9.8147 -16.3834
upperneck 2.06863 -13.9233 18.8319
head 2.74627 -6.94039 7.96596
rclavicle 7.49418e-014 9.54166e-015
rhumerus 29.9152 14.3775 -104.82
rradius 66.447
rwrist -19.6739
rhand -11.4944 426.248
rfingers 7.12502
rthumb 14.5442 36.7778
lclavicle 7.49418e-014 9.54166e-015
lhumerus 56.7723 -25.99 50.4408
lradius 60.4833
lwrist -30.2854
lhand -26.0417 17.8844
lfingers 7.12502
lthumb 0.505423 -312.136
rfemur -33.9411 -13.2603 5.23018
rtibia 77.6225
rfoot -3.86851 -2.33277
rtoes -16.4205
lfemur -13.514 8.01182 -38.0001
ltibia 29.1155
lfoot -15.3631 -7.34959
ltoes -24.1668
